# xmcd CD database file
#
# Track frame offsets:
#	150
#	25090
#	42758
#	65117
#	84299
#	104011
#	125102
#	146963
#	171163
#	192829
#	214469
#
# Disc length: 3182 seconds
#
# Revision: 0
# Processed by: cddbd v1.5.1PL0 Copyright (c) Steve Scherf et al.
# Submitted via: CDex 1.51
#
DISCID=a90c6c0b
DTITLE=Sons of Champlin - Hip Li'l Dreams
DYEAR=2005
DGENRE=Rhythmic Soul
TTITLE0=For Joy
TTITLE1=Dream On
TTITLE2=I'm Not Your Lover
TTITLE3=Swim
TTITLE4=Hip Li'l Dreams
TTITLE5=Soul Explosions
TTITLE6=Bring Home The Gold
TTITLE7=Maybe
TTITLE8=Star Outa' You
TTITLE9="74"
TTITLE10=Light Up The Candles
EXTD=YEAR: 2005
EXTT0=
EXTT1=
EXTT2=
EXTT3=
EXTT4=
EXTT5=
EXTT6=
EXTT7=
EXTT8=
EXTT9=
EXTT10=
PLAYORDER=
